<svg width="24" height="25" viewBox="0 0 24 25" fill="none" xmlns="http://www.w3.org/2000/svg">
<g id="icon / jam-icons / outline &#38; logos / arrow-right">
<path id="Vector" d="M15.586 11.157L11.636 7.20698C11.4538 7.01838 11.353 6.76578 11.3553 6.50358C11.3576 6.24138 11.4628 5.99057 11.6482 5.80516C11.8336 5.61975 12.0844 5.51458 12.3466 5.51231C12.6088 5.51003 12.8614 5.61082 13.05 5.79298L18.707 11.45C18.8002 11.5426 18.8741 11.6528 18.9246 11.7741C18.9751 11.8955 19.001 12.0256 19.001 12.157C19.001 12.2884 18.9751 12.4185 18.9246 12.5398C18.8741 12.6612 18.8002 12.7713 18.707 12.864L13.05 18.521C12.9578 18.6165 12.8474 18.6927 12.7254 18.7451C12.6034 18.7975 12.4722 18.8251 12.3394 18.8262C12.2066 18.8274 12.0749 18.8021 11.952 18.7518C11.8291 18.7015 11.7175 18.6273 11.6236 18.5334C11.5297 18.4395 11.4555 18.3278 11.4052 18.2049C11.3549 18.082 11.3296 17.9504 11.3307 17.8176C11.3319 17.6848 11.3595 17.5536 11.4119 17.4316C11.4643 17.3096 11.5405 17.1992 11.636 17.107L15.586 13.157H6C5.73478 13.157 5.48043 13.0516 5.29289 12.8641C5.10536 12.6766 5 12.4222 5 12.157C5 11.8918 5.10536 11.6374 5.29289 11.4499C5.48043 11.2623 5.73478 11.157 6 11.157H15.586Z" fill="#2563EB"/>
</g>
</svg>
