<svg width="25" height="24" viewBox="0 0 25 24" fill="none" xmlns="http://www.w3.org/2000/svg">
<g id="Group 45">
<path id="Vector" d="M17.0451 19.8633L0.985664 8.78553C-0.641767 7.66298 -0.0885482 5.32566 1.94082 4.77602L19.0091 0.14348C19.3707 0.0130174 19.7581 -0.0293334 20.1394 0.0199461C20.5206 0.0692256 20.8845 0.208712 21.2011 0.426831C21.5175 0.644949 21.7775 0.935407 21.9592 1.2741C22.1409 1.61279 22.2393 1.98994 22.2461 2.37426L21.2346 18.0837C21.1146 19.9484 18.6726 20.9859 17.0451 19.8633Z" fill="#94A3B8"/>
<path id="Vector_2" d="M11.9516 22.5977L2.49043 4.09535C2.27416 3.67207 2.17899 3.19728 2.21541 2.72335C2.25184 2.24941 2.41845 1.79475 2.69686 1.40949C2.97528 1.02423 3.35468 0.723344 3.79323 0.540012C4.23179 0.35668 4.71246 0.298028 5.18223 0.370529L22.7161 3.07664C23.1197 3.13895 23.5028 3.29619 23.834 3.53542C24.165 3.77467 24.4345 4.08907 24.6205 4.45279C24.8063 4.81651 24.9032 5.21915 24.9032 5.62762C24.9031 6.03608 24.806 6.43871 24.6201 6.80236L16.5429 22.5986C16.326 23.0207 15.997 23.3748 15.5919 23.622C15.1868 23.8692 14.7215 23.9999 14.247 23.9998C13.7724 23.9997 13.3071 23.8689 12.9022 23.6215C12.4972 23.3741 12.1683 23.0199 11.9516 22.5977Z" fill="#94A3B8"/>
<path id="Vector_3" d="M17.7187 6.5452L14.3521 6L10.2187 7.17758L11.8685 10.5642L15.732 13.3614C15.8172 13.4225 15.911 13.4692 16.0099 13.5L17.4773 10.4889L17.7187 6.5452Z" fill="white"/>
</g>
</svg>
