<svg width="16" height="24" viewBox="0 0 16 24" fill="none" xmlns="http://www.w3.org/2000/svg">
<path id="Vector" d="M7.58319 14.9863V21.0769C7.58319 21.3104 7.49044 21.5343 7.32533 21.6993C7.16031 21.8644 6.9364 21.9572 6.70288 21.9572C6.46946 21.9572 6.24555 21.8644 6.08043 21.6993C5.91532 21.5343 5.82258 21.3104 5.82258 21.0769V14.9947C6.06771 15.1737 6.36154 15.2737 6.66498 15.2811C6.9957 15.2906 7.31977 15.1865 7.58319 14.9863ZM15.0806 13.2257C14.8572 13.2257 14.6428 13.3145 14.4849 13.4724C14.3269 13.6304 14.2382 13.8447 14.2382 14.0681V15.1295C14.2382 15.363 14.3309 15.5869 14.496 15.752C14.661 15.9171 14.885 16.0098 15.1185 16.0098C15.352 16.0098 15.5759 15.9171 15.7409 15.752C15.906 15.5869 15.9988 15.363 15.9988 15.1295V14.1102C16.0053 13.9894 15.9858 13.8686 15.9415 13.7561C15.8972 13.6435 15.8292 13.5418 15.742 13.4579C15.6549 13.374 15.5507 13.3098 15.4366 13.2697C15.3225 13.2297 15.201 13.2147 15.0806 13.2257ZM3.91033 17.2945C3.6072 17.2854 3.31376 17.1856 3.06792 17.0081V23.1155C3.06792 23.3501 3.16111 23.5751 3.327 23.741C3.49287 23.9068 3.71785 24 3.95245 24C4.18704 24 4.41202 23.9068 4.5779 23.741C4.74378 23.5751 4.83697 23.3501 4.83697 23.1155V17.0502C4.56188 17.228 4.23731 17.3136 3.91033 17.2945ZM12.3343 11.3977C12.2202 11.392 12.1061 11.4096 11.999 11.4493C11.8919 11.4891 11.794 11.5502 11.7112 11.629C11.6285 11.7079 11.5627 11.8026 11.5177 11.9077C11.4728 12.0127 11.4496 12.1259 11.4498 12.2401V16.9323C11.4498 17.1669 11.543 17.3919 11.7089 17.5577C11.8748 17.7236 12.0997 17.8168 12.3343 17.8168C12.5689 17.8168 12.7939 17.7236 12.9598 17.5577C13.1257 17.3919 13.2189 17.1669 13.2189 16.9323V12.2991C13.2256 12.1775 13.2059 12.0559 13.1611 11.9427C13.1163 11.8295 13.0475 11.7273 12.9594 11.6432C12.8713 11.5592 12.7661 11.4951 12.6509 11.4557C12.5358 11.4162 12.4134 11.4021 12.2922 11.4145L12.3343 11.3977ZM9.53756 13.2004C9.22023 13.1982 8.91141 13.0982 8.65304 12.914V19.0383C8.65304 19.2729 8.74621 19.4979 8.91208 19.6637C9.07803 19.8296 9.30295 19.9228 9.53756 19.9228C9.77217 19.9228 9.99709 19.8296 10.163 19.6637C10.3289 19.4979 10.4221 19.2729 10.4221 19.0383V12.9224C10.1549 13.1215 9.82861 13.2253 9.49544 13.2173L9.53756 13.2004ZM1.99808 17.8926V0.783433C1.99586 0.57488 1.91145 0.375635 1.76319 0.228948C1.61493 0.0822605 1.41478 -8.42336e-06 1.20622 6.46875e-10H1.02089C0.81233 -8.42336e-06 0.612184 0.0822605 0.463921 0.228948C0.315659 0.375635 0.23125 0.57488 0.229034 0.783433V17.8926C0.229034 18.1026 0.312466 18.304 0.460964 18.4525C0.609463 18.6011 0.810881 18.6845 1.02089 18.6845H1.20622C1.41624 18.6845 1.61765 18.6011 1.76615 18.4525C1.91465 18.304 1.99808 18.1026 1.99808 17.8926ZM4.00299 16.6458H3.81766C3.60765 16.6458 3.40623 16.5624 3.25774 16.4139C3.10924 16.2654 3.02581 16.064 3.02581 15.854V2.82204C3.02803 2.6135 3.11243 2.41424 3.26069 2.26756C3.40895 2.12087 3.6091 2.0386 3.81766 2.03861H4.00299C4.21155 2.0386 4.4117 2.12087 4.55996 2.26756C4.70822 2.41424 4.79263 2.6135 4.79485 2.82204V15.8708C4.79485 16.0808 4.71142 16.2823 4.56292 16.4308C4.41442 16.5793 4.213 16.6627 4.00299 16.6627V16.6458ZM6.79134 14.6409H6.59758C6.38985 14.6409 6.19054 14.5584 6.04362 14.4115C5.89671 14.2645 5.81415 14.0653 5.81415 13.8575V4.8438C5.81306 4.74021 5.83252 4.63743 5.87135 4.54141C5.91019 4.44538 5.96772 4.35803 6.04059 4.28438C6.11346 4.21074 6.20022 4.15228 6.29584 4.11238C6.39145 4.07249 6.49397 4.05194 6.59758 4.05195H6.79134C6.99992 4.05417 7.19914 4.13857 7.34581 4.28683C7.49255 4.4351 7.57477 4.63524 7.57477 4.8438V13.8575C7.57477 14.0653 7.49221 14.2645 7.3453 14.4115C7.19838 14.5584 6.99916 14.6409 6.79134 14.6409ZM9.57968 12.577H9.40278C9.1942 12.577 8.99405 12.4948 8.84578 12.3481C8.69752 12.2014 8.61311 12.0022 8.61092 11.7936V6.94138C8.60401 6.83322 8.61935 6.7248 8.65608 6.62279C8.69272 6.52086 8.75 6.42743 8.82422 6.3485C8.89843 6.26948 8.98806 6.20664 9.08764 6.16368C9.18712 6.1208 9.29436 6.09873 9.40278 6.09898H9.58811C9.79812 6.09898 9.99954 6.18238 10.1481 6.33089C10.2966 6.47941 10.38 6.68083 10.38 6.89084V11.7768C10.3811 11.8815 10.3614 11.9853 10.3221 12.0824C10.2828 12.1794 10.2247 12.2677 10.151 12.3422C10.0774 12.4166 9.98976 12.4756 9.89306 12.516C9.79643 12.5563 9.69282 12.577 9.58811 12.577H9.57968ZM12.3765 10.7659H12.1911C11.9811 10.7659 11.7797 10.6825 11.6312 10.534C11.4827 10.3855 11.3993 10.184 11.3993 9.97403V8.71885C11.4015 8.51027 11.4859 8.31104 11.6341 8.16438C11.7824 8.01763 11.9825 7.93542 12.1911 7.93542H12.3765C12.585 7.93542 12.7852 8.01763 12.9334 8.16438C13.0817 8.31104 13.1661 8.51027 13.1683 8.71885V9.97403C13.1683 10.1826 13.0861 10.3828 12.9393 10.531C12.7927 10.6793 12.5935 10.7637 12.3849 10.7659H12.3765Z" fill="#94A3B8"/>
</svg>
