<svg width="47" height="47" viewBox="0 0 47 47" fill="none" xmlns="http://www.w3.org/2000/svg">
<path id="dribble" d="M23.744 0C19.1468 0.000197779 14.6529 1.3636 10.8306 3.91781C7.00826 6.47201 4.02917 10.1023 2.27004 14.3496C0.510914 18.5969 0.0507481 23.2705 0.947736 27.7793C1.84472 32.2881 4.05858 36.4297 7.30935 39.6803C10.5601 42.931 14.7018 45.1447 19.2107 46.0414C23.7195 46.9382 28.3931 46.4779 32.6403 44.7186C36.8875 42.9592 40.5177 39.98 43.0717 36.1576C45.6258 32.3351 46.989 27.8412 46.989 23.244C46.9755 17.0833 44.5221 11.1787 40.1657 6.82254C35.8093 2.46633 29.9047 0.0132086 23.744 0V0ZM39.511 10.125C42.5142 13.7186 44.1912 18.2352 44.261 22.918C40.3826 22.0618 36.37 22.008 32.47 22.76C31.3993 22.9553 30.331 23.2023 29.265 23.501C28.911 22.5377 28.5343 21.5827 28.135 20.636C27.727 19.6707 27.2977 18.721 26.847 17.787C31.748 15.914 37.06 13.127 39.511 10.125ZM23.745 2.725C28.8812 2.72095 33.8308 4.65058 37.609 8.13C36.184 10.074 32.122 12.9 25.6 15.345C23.3593 11.1549 20.6222 7.2498 17.448 3.714C19.4819 3.05668 21.6065 2.72262 23.744 2.724L23.745 2.725ZM14.751 4.8C17.9702 8.257 20.7447 12.1028 23.01 16.248C16.8135 18.3717 10.2527 19.226 3.71899 18.76C4.3976 15.7565 5.7409 12.9434 7.65006 10.5275C9.55923 8.11162 11.9857 6.15447 14.751 4.8ZM3.22399 23.244C3.22399 22.644 3.25199 22.044 3.30299 21.455C4.59459 21.5898 5.89238 21.6565 7.19099 21.655C13.0069 21.5709 18.7735 20.5737 24.28 18.7C25.1753 20.5336 25.9763 22.4117 26.68 24.327C24.3938 25.1482 22.1914 26.1862 20.103 27.427C15.003 30.466 11.264 34.376 9.71499 38.206C7.66531 36.2901 6.03142 33.9733 4.91479 31.3995C3.79817 28.8256 3.22265 26.0496 3.22399 23.244ZM23.744 43.764C19.5218 43.7692 15.4021 42.4642 11.953 40.029C12.988 36.529 16.489 32.748 21.497 29.767C23.4259 28.6265 25.4595 27.6732 27.57 26.92C29.1835 32.0188 30.1498 37.3002 30.446 42.64C28.2905 43.3866 26.0251 43.7668 23.744 43.765V43.764ZM33.1 41.5C32.7341 36.2677 31.7451 31.0979 30.154 26.1C34.6932 24.7524 39.505 24.6098 44.116 25.686C43.7108 29.0211 42.495 32.2062 40.5746 34.963C38.6543 37.7197 36.088 39.9641 33.1 41.5Z" fill="white"/>
</svg>
