<svg width="46" height="32" viewBox="0 0 46 32" fill="none" xmlns="http://www.w3.org/2000/svg">
<g id="email">
<g id="Group 47">
<g id="Group 46">
<path id="Path 11" d="M30.603 16.2311L45.825 25.8541V6.20508L30.603 16.2311Z" fill="white"/>
</g>
</g>
<g id="Group 49">
<g id="Group 48">
<path id="Path 12" d="M0.671997 6.20508V25.8581L15.894 16.2351L0.671997 6.20508Z" fill="white"/>
</g>
</g>
<g id="Group 51">
<g id="Group 50">
<path id="Path 13" d="M43.004 0.478027H3.49702C2.82835 0.482828 2.1837 0.727881 1.68069 1.16847C1.17769 1.60906 0.849854 2.21582 0.757019 2.87803L23.249 17.699L45.741 2.87803C45.6483 2.21633 45.3209 1.60997 44.8185 1.16945C44.3161 0.728923 43.6722 0.483545 43.004 0.478027Z" fill="white"/>
</g>
</g>
<g id="Group 53">
<g id="Group 52">
<path id="Path 14" d="M28.018 17.9361L24.025 20.5661C23.7944 20.7171 23.5247 20.7975 23.249 20.7975C22.9734 20.7975 22.7037 20.7171 22.473 20.5661L18.48 17.9331L0.762024 29.1401C0.857801 29.798 1.18595 30.3999 1.68708 30.8368C2.1882 31.2737 2.82919 31.5168 3.49402 31.5221H43.004C43.6692 31.5173 44.3107 31.2744 44.8122 30.8375C45.3138 30.4005 45.6422 29.7984 45.738 29.1401L28.018 17.9361Z" fill="white"/>
</g>
</g>
</g>
</svg>
