<svg width="46" height="32" viewBox="0 0 46 32" fill="none" xmlns="http://www.w3.org/2000/svg">
<g id="email">
<g id="Group 47">
<g id="Group 46">
<path id="Path 11" d="M30.603 16.231L45.825 25.854V6.20502L30.603 16.231Z" fill="white"/>
</g>
</g>
<g id="Group 49">
<g id="Group 48">
<path id="Path 12" d="M0.671997 6.20502V25.858L15.894 16.235L0.671997 6.20502Z" fill="white"/>
</g>
</g>
<g id="Group 51">
<g id="Group 50">
<path id="Path 13" d="M43.004 0.478027H3.497C2.82834 0.482828 2.18369 0.727881 1.68068 1.16847C1.17767 1.60906 0.849839 2.21582 0.757004 2.87803L23.249 17.699L45.741 2.87803C45.6482 2.21633 45.3209 1.60997 44.8185 1.16945C44.3161 0.728923 43.6722 0.483545 43.004 0.478027Z" fill="white"/>
</g>
</g>
<g id="Group 53">
<g id="Group 52">
<path id="Path 14" d="M28.018 17.936L24.025 20.566C23.7943 20.717 23.5247 20.7974 23.249 20.7974C22.9733 20.7974 22.7036 20.717 22.473 20.566L18.48 17.933L0.761993 29.14C0.857771 29.798 1.18592 30.3998 1.68705 30.8368C2.18817 31.2737 2.82916 31.5168 3.49399 31.522H43.004C43.6692 31.5173 44.3106 31.2744 44.8122 30.8374C45.3137 30.4004 45.6422 29.7983 45.738 29.14L28.018 17.936Z" fill="white"/>
</g>
</g>
</g>
</svg>
