<svg width="126" height="125" viewBox="0 0 126 125" fill="none" xmlns="http://www.w3.org/2000/svg">
<g id="experience(1)">
<path id="Path 21" d="M125.184 124.3H0.884033V0H125.184V124.3Z" fill="#FF80E4"/>
<path id="Path 22" d="M125.182 124.3H63.033V0H125.182V124.3Z" fill="#FF5AD4"/>
<path id="Path 23" d="M117.899 117.015H8.16705V7.28296H117.899V117.015Z" fill="#7F1363"/>
<path id="Path 24" d="M117.899 117.015H63.033V7.28296H117.899V117.015Z" fill="#661054"/>
<path id="Path 25" d="M36.44 44.087L46.7531 59.469L57.0081 44.087H65.6891L50.948 65.062L65.2231 85.455H56.5401L46.752 70.655L36.9051 85.455H28.1651L42.44 65.062L27.701 44.087H36.44Z" fill="#FF80E4"/>
<g id="Group 68">
<path id="Path 26" d="M79.9641 86.038C71.0001 86.038 65.4561 78.567 65.4561 70.19C65.4561 60.69 71.8501 54.4 79.0901 54.4C81.1753 54.3848 83.2274 54.9211 85.0385 55.9546C86.8496 56.9881 88.3554 58.482 89.403 60.285V42.922H97.2101V76.483C97.2101 77.299 98.3551 78.775 99.0161 78.814V85.456C97.9244 85.6963 96.8124 85.8329 95.695 85.864C90.058 85.864 90.5681 80.154 90.5681 80.154C89.4669 81.9741 87.909 83.4747 86.0489 84.5069C84.1888 85.539 82.0911 86.0669 79.9641 86.038ZM82.0031 79.396C86.9031 79.396 89.13 75.007 89.403 74.269V66.986C89.092 66.132 86.295 61.043 81.537 61.043C76.22 61.043 73.5551 66.318 73.5551 70.365C73.5551 74.814 76.8271 79.396 82.0031 79.396Z" fill="#FF5AD4"/>
<path id="Path 27" d="M63.033 44.087V47.867L65.689 44.087H63.033Z" fill="#FF5AD4"/>
<path id="Path 28" d="M63.033 85.456H65.223L63.033 82.327V85.456Z" fill="#FF5AD4"/>
</g>
</g>
</svg>
