<svg width="33" height="33" viewBox="0 0 33 33" fill="none" xmlns="http://www.w3.org/2000/svg">
<g id="Group 180">
<path id="Rectangle 72" d="M23 0H10C4.47715 0 0 4.47715 0 10V23C0 28.5228 4.47715 33 10 33H23C28.5228 33 33 28.5228 33 23V10C33 4.47715 28.5228 0 23 0Z" fill="white"/>
<path id="Path 58" d="M15.705 8.40889C15.9399 8.27329 16.2063 8.2019 16.4775 8.2019C16.7487 8.2019 17.0151 8.27329 17.25 8.40889L23.079 11.7739C23.3138 11.9096 23.5087 12.1046 23.6442 12.3395C23.7797 12.5743 23.8511 12.8407 23.851 13.1119V19.8429C23.8511 20.114 23.7797 20.3804 23.6442 20.6153C23.5087 20.8502 23.3138 21.0452 23.079 21.1809L17.25 24.5459C17.0152 24.6816 16.7487 24.753 16.4775 24.753C16.2063 24.753 15.9398 24.6816 15.705 24.5459L9.876 21.1809C9.64123 21.0452 9.44629 20.8502 9.31078 20.6153C9.17527 20.3804 9.10395 20.114 9.104 19.8429V13.1119C9.10395 12.8407 9.17527 12.5743 9.31078 12.3395C9.44629 12.1046 9.64123 11.9096 9.876 11.7739L15.705 8.40889Z" stroke="#333333" stroke-width="4"/>
</g>
</svg>
