<svg width="126" height="125" viewBox="0 0 126 125" fill="none" xmlns="http://www.w3.org/2000/svg">
<g id="Group 77">
<g id="Group 70">
<path id="Rectangle 43" d="M125.15 0.210938H0.850037V124.511H125.15V0.210938Z" fill="#DFDFDF"/>
<g id="html-5">
<path id="Path 37" d="M106.006 32.801L99.923 103.345C90.6252 110.546 79.2068 114.468 67.4469 114.502C55.687 114.536 44.2461 110.679 34.907 103.532L28.807 32.801H106.006Z" fill="#E64C18"/>
<path id="Path 38" d="M67.409 39.414V112.871L92.784 105.707L98.444 39.413L67.409 39.414Z" fill="#F36518"/>
<path id="Path 39" d="M43.336 48.6309L45.824 78.0959H78.898L77.816 90.2679L67.406 93.0869L56.564 90.0499L56.292 82.4609H46.192L47.456 97.4219L67.405 103.06L87.354 97.4219L89.826 68.1479H55L54.136 58.6029L90.655 58.4119L91.481 48.6279L43.336 48.6309Z" fill="white"/>
<path id="Path 40" d="M45.473 11.433V16.495H40.634V11.433H36.134V25.94H40.634V21.216H45.471V25.94H49.971V11.433H45.473Z" fill="black"/>
<path id="Path 41" d="M65.946 11.433H52.11V16.495H56.61V26.053H61.447V16.491H65.947L65.946 11.433Z" fill="black"/>
<path id="Path 42" d="M91.7071 21.441V11.541H86.87V26.053H98.681V21.441H91.7071Z" fill="black"/>
<path id="Path 43" d="M79.558 11.542L76.184 16.716L72.809 11.542H67.972V26.053H72.809V18.853L76.184 24.028L79.558 18.853V26.053H84.395V11.542H79.558Z" fill="black"/>
</g>
</g>
</g>
</svg>
