<svg width="47" height="33" viewBox="0 0 47 33" fill="none" xmlns="http://www.w3.org/2000/svg">
<g id="Group 117">
<g id="Group 63">
<g id="Group 62">
<path id="Path 18" d="M22.265 18.032C21.1493 16.6243 19.6043 15.6196 17.865 15.171C19.2214 14.5451 20.3706 13.5444 21.177 12.287C21.8948 11.1472 22.2761 9.8279 22.277 8.48095C22.2684 7.00425 21.8401 5.56045 21.042 4.31796C20.2347 3.00529 19.0402 1.97531 17.623 1.36996C15.7745 0.660843 13.8014 0.333924 11.823 0.408959H-0.00897217V31.9459H12.015C13.7261 31.9788 15.4347 31.8025 17.103 31.421C18.3457 31.1334 19.5192 30.6029 20.556 29.8599C21.5488 29.0791 22.3414 28.073 22.868 26.9249C23.4942 25.6427 23.8145 24.2328 23.804 22.8059C23.8415 21.087 23.2994 19.4054 22.265 18.032ZM4.16503 13.662V4.13496H10.465C12.0774 4.06613 13.6917 4.21343 15.265 4.57295C16.1579 4.83654 16.9231 5.41823 17.416 6.20795C17.9275 7.03855 18.1892 7.99871 18.17 8.97395C18.2074 9.95494 17.9241 10.9214 17.363 11.727C16.7593 12.5022 15.9151 13.0548 14.963 13.298C13.6589 13.5946 12.3214 13.718 10.985 13.665H4.16403L4.16503 13.662ZM18.86 25.462C18.4911 26.1758 17.9424 26.781 17.268 27.2179C16.5263 27.6534 15.7089 27.9448 14.859 28.077C13.9179 28.2031 12.9683 28.2546 12.019 28.2309H4.16403V17.3899H11.456C13.0119 17.3324 14.5674 17.5104 16.07 17.9179C17.0865 18.23 17.9691 18.8736 18.577 19.7459C19.189 20.6493 19.5037 21.7212 19.477 22.812C19.4968 23.7335 19.2842 24.6452 18.859 25.463L18.86 25.462Z" fill="white"/>
</g>
</g>
<g id="Group 65">
<g id="Group 64">
<path id="Path 19" d="M46.48 20.1039C46.48 16.3306 45.5134 13.4043 43.58 11.3249C42.6295 10.2971 41.4689 9.48603 40.177 8.9468C38.8851 8.40757 37.4922 8.15284 36.093 8.19993C34.6566 8.14894 33.2259 8.40669 31.8976 8.95579C30.5693 9.50489 29.3742 10.3326 28.393 11.3829C26.4144 13.5076 25.425 16.4913 25.425 20.3339C25.425 24.0479 26.4034 26.9349 28.36 28.9949C30.3086 30.762 32.788 31.8332 35.4102 32.0409C38.0325 32.2487 40.6496 31.5812 42.852 30.1429C44.6038 28.779 45.8383 26.8588 46.352 24.6989L42.352 24.2089C41.9263 25.6098 41.0941 26.8527 39.961 27.7799C38.9065 28.5424 37.6298 28.9353 36.329 28.8979C35.4368 28.9191 34.5501 28.7519 33.7268 28.4072C32.9036 28.0626 32.1622 27.5483 31.551 26.8979C30.1734 25.2937 29.4184 23.2475 29.424 21.1329H46.461C46.475 20.6759 46.48 20.3329 46.48 20.1039ZM29.637 17.9459C29.6778 16.1577 30.395 14.4513 31.644 13.1709C32.2333 12.5869 32.9343 12.1278 33.7051 11.8209C34.4759 11.514 35.3006 11.3657 36.13 11.3849C37.0489 11.3612 37.9608 11.5511 38.7937 11.9398C39.6267 12.3286 40.358 12.9054 40.93 13.6249C41.8393 14.8875 42.3493 16.3936 42.394 17.9489L29.637 17.9459Z" fill="white"/>
</g>
</g>
<g id="Group 67">
<g id="Group 66">
<path id="Path 20" d="M42.568 4.01099H29.629L29.596 7.19398H42.596L42.568 4.01099Z" fill="white"/>
</g>
</g>
</g>
</svg>
