<svg width="125" height="125" viewBox="0 0 125 125" fill="none" xmlns="http://www.w3.org/2000/svg">
<g id="Group 75">
<g id="Group 71">
<path id="Rectangle 43" d="M124.633 0.210938H0.333008V124.511H124.633V0.210938Z" fill="#DFDFDF"/>
</g>
<g id="css">
<path id="Path 45" d="M102.281 31.058L96.068 103.107C86.5294 110.494 74.8069 114.502 62.7425 114.502C50.6781 114.502 38.9556 110.494 29.417 103.107L23.204 31.058H102.281Z" fill="#006BC0"/>
<path id="Path 46" d="M62.745 37.8309V113.076L88.738 105.738L94.538 37.8309H62.745Z" fill="#0096DC"/>
<path id="Path 47" d="M85.709 67.263H66.963L86.552 57.294L87.399 47.272H38.086L38.949 57.49H58.749L39.756 66.99L40.64 77.457H74.52L73.409 89.923L62.747 92.811L51.641 89.701L51.363 81.927H41.012L42.306 97.254L62.742 103.029L83.178 97.254L85.71 67.265L85.709 67.263Z" fill="white"/>
<g id="Group 73">
<path id="Path 48" d="M43.472 19.9499V12.8419H53.69V8.99194H39.77V23.7999H53.69V19.9499H43.472Z" fill="#222123"/>
<path id="Path 49" d="M59.669 14.7859V13.0089H69.831V8.99194H55.911V18.1729H65.888V19.9499H55.911V23.7999H69.831V14.7859H59.669Z" fill="#222123"/>
<path id="Path 50" d="M75.55 14.7859V13.0089H85.717V8.99194H71.797V18.1729H81.774V19.9499H71.797V23.7999H85.717V14.7859H75.55Z" fill="#222123"/>
</g>
</g>
</g>
</svg>
