<svg width="47" height="46" viewBox="0 0 47 46" fill="none" xmlns="http://www.w3.org/2000/svg">
<g id="Group 124">
<g id="Group 118">
<g id="Rectangle 51">
<path id="Vector" d="M34.5 1.5H12.5C6.70101 1.5 2 6.20101 2 12V34C2 39.799 6.70101 44.5 12.5 44.5H34.5C40.299 44.5 45 39.799 45 34V12C45 6.20101 40.299 1.5 34.5 1.5Z" stroke="white" stroke-width="3"/>
</g>
<g id="Ellipse 54">
<path id="Vector_2" d="M24.5 30.5C28.0899 30.5 31 27.5899 31 24C31 20.4101 28.0899 17.5 24.5 17.5C20.9101 17.5 18 20.4101 18 24C18 27.5899 20.9101 30.5 24.5 30.5Z" stroke="white" stroke-width="3"/>
</g>
<path id="Ellipse 56" d="M35.5 13C36.8807 13 38 11.8807 38 10.5C38 9.11929 36.8807 8 35.5 8C34.1193 8 33 9.11929 33 10.5C33 11.8807 34.1193 13 35.5 13Z" fill="white"/>
</g>
</g>
</svg>
