<svg width="168" height="153" viewBox="0 0 168 153" fill="none" xmlns="http://www.w3.org/2000/svg">
<g id="Group 183">
<g id="Rectangle 59">
<path id="Vector" d="M168 0H0V153H168V0Z" fill="#FF0080"/>
<path id="Vector_2" d="M167.5 0.5H0.5V152.5H167.5V0.5Z" stroke="#707070"/>
</g>
<g id="Group 182">
<path id="Rectangle 72" d="M88.5 45H79.5C64.5883 45 52.5 57.0883 52.5 72V81C52.5 95.9117 64.5883 108 79.5 108H88.5C103.412 108 115.5 95.9117 115.5 81V72C115.5 57.0883 103.412 45 88.5 45Z" fill="#333333"/>
<g id="Polygon 1">
<path id="Vector_3" d="M94.405 73.0328C94.405 71.6103 93.6403 70.2839 92.4092 69.5712L86.1746 65.9616C84.9384 65.2459 83.4025 65.2459 82.1663 65.9616L75.9317 69.5711C74.7006 70.2839 73.9358 71.6103 73.9358 73.0328V80.3093C73.9358 81.7319 74.7006 83.0583 75.9317 83.771L82.1663 87.3806C83.4025 88.0963 84.9384 88.0963 86.1746 87.3806L92.4092 83.771C93.6403 83.0583 94.405 81.7319 94.405 80.3093V73.0328ZM102.405 73.0328V80.3093C102.405 84.5914 100.123 88.549 96.4175 90.6945L90.1829 94.304C86.4637 96.4572 81.8771 96.4572 78.158 94.304L71.9234 90.6945C68.2176 88.549 65.9358 84.5914 65.9358 80.3093V73.0328C65.9358 68.7508 68.2176 64.7932 71.9234 62.6477L78.158 59.0382C81.8771 56.885 86.4637 56.885 90.1829 59.0382L96.4175 62.6477C100.123 64.7932 102.405 68.7508 102.405 73.0328Z" fill="#FF0080"/>
</g>
</g>
</g>
</svg>
