<svg width="126" height="125" viewBox="0 0 126 125" fill="none" xmlns="http://www.w3.org/2000/svg">
<g id="Group 76">
<g id="Group 72">
<path id="Rectangle 43" d="M125.115 0.210938H0.815063V124.511H125.115V0.210938Z" fill="#E4BA42"/>
</g>
<g id="javascript">
<g id="Group 74">
<path id="Path 52" d="M91.794 58.138C90.052 53.086 82.909 53.086 81.516 57.267C80.123 61.448 84.826 63.8869 92.143 66.3259C99.46 68.7649 103.989 75.211 103.118 80.959C102.247 86.707 99.808 94.1989 85.349 94.1989C76.312 94.1989 71.29 88.551 68.794 84.315L76.987 79.392C76.987 79.392 79.774 85.315 85 85.315C90.226 85.315 92.317 83.573 92.317 79.566C92.317 74.688 75.417 72.946 72.806 64.584C70.195 56.222 73.677 44.376 85.871 45.247C93.493 45.791 97.78 49.534 99.923 52.264L91.794 58.138Z" fill="#F2F2F2"/>
<path id="Path 53" d="M53.813 46.114V79.562C53.813 83.569 50.329 85.662 46.845 84.962C43.361 84.262 41.793 80.084 41.793 80.084L33.78 85.484C33.78 85.484 35.522 93.497 46.497 94.194C57.472 94.891 63.743 88.271 63.743 82.694V46.114H53.813Z" fill="#F2F2F2"/>
<path id="Path 54" d="M14.273 12.235V107.775C16.8706 110.405 19.696 112.8 22.716 114.931H94.838C97.2516 113.228 99.542 111.357 101.692 109.331H19.878V17.84H111.361V97.722C113.582 94.2924 115.46 90.6525 116.968 86.855V12.235H14.273Z" fill="#F2F2F2" stroke="#F2F2F2"/>
</g>
<path id="Ellipse 53" d="M17.668 94.026C23.1522 94.026 27.598 89.5802 27.598 84.096C27.598 78.6118 23.1522 74.166 17.668 74.166C12.1838 74.166 7.73804 78.6118 7.73804 84.096C7.73804 89.5802 12.1838 94.026 17.668 94.026Z" fill="#3F4A43"/>
</g>
</g>
</svg>
