<svg width="125" height="125" viewBox="0 0 125 125" fill="none" xmlns="http://www.w3.org/2000/svg">
<g id="illustrator">
<path id="Path 29" d="M124.667 124.3H0.367035V0H124.667V124.3Z" fill="#FEC478"/>
<path id="Path 30" d="M124.665 124.3H62.516V0H124.665V124.3Z" fill="#FEA832"/>
<path id="Path 31" d="M117.382 117.015H7.65002V7.28296H117.382V117.015Z" fill="#994C0F"/>
<path id="Path 32" d="M117.382 117.015H62.516V7.28296H117.382V117.015Z" fill="#713708"/>
<path id="Path 33" d="M50.743 44.087H57.851L73.583 85.455H65.309L61.464 75.142H47.014L43.227 85.455H34.953L50.743 44.087ZM60.007 69.487L54.297 53.231L48.354 69.487H60.007Z" fill="#FEC478"/>
<g id="Group 69">
<path id="Path 34" d="M77.369 50.671V42.922H85.176V50.671H77.369ZM77.369 85.455V54.922H85.176V85.453L77.369 85.455Z" fill="#FEA832"/>
<path id="Path 35" d="M62.516 56.356V77.967L65.308 85.455H73.582L62.516 56.356Z" fill="#FEA832"/>
</g>
</g>
</svg>
