<svg width="41" height="256" viewBox="0 0 41 256" fill="none" xmlns="http://www.w3.org/2000/svg">
<g id="Social Media">
<path id="dribble" d="M20.5 0C16.4455 0 12.482 1.2023 9.11082 3.45487C5.73961 5.70744 3.11208 8.9091 1.56048 12.655C0.00888228 16.4009 -0.397086 20.5227 0.393911 24.4994C1.18491 28.476 3.13734 32.1287 6.00432 34.9957C8.8713 37.8627 12.524 39.8151 16.5007 40.6061C20.4773 41.3971 24.5991 40.9911 28.345 39.4395C32.0909 37.8879 35.2926 35.2604 37.5451 31.8892C39.7977 28.518 41 24.5545 41 20.5C40.9884 15.0666 38.8248 9.85913 34.9829 6.01715C31.1409 2.17517 25.9334 0.0116245 20.5 0V0ZM34.4 8.93C37.0485 12.0992 38.5274 16.0823 38.589 20.212C35.1681 19.4569 31.6289 19.4095 28.189 20.073C27.245 20.245 26.3027 20.4627 25.362 20.726C25.05 19.8767 24.7167 19.0347 24.362 18.2C24.0027 17.3487 23.624 16.511 23.226 15.687C27.559 14.035 32.243 11.577 34.4 8.93ZM20.5 2.4C25.0306 2.39712 29.3961 4.10008 32.728 7.17C31.471 8.884 27.888 11.381 22.14 13.533C20.1628 9.83735 17.7477 6.39322 14.947 3.275C16.7408 2.69462 18.6146 2.39936 20.5 2.4ZM12.568 4.236C15.407 7.28412 17.8539 10.6751 19.852 14.33C14.3872 16.2028 8.6012 16.9561 2.83901 16.545C3.43764 13.8966 4.62236 11.4161 6.30603 9.28594C7.98971 7.15578 10.1295 5.43015 12.568 4.236ZM2.40001 20.5C2.40001 19.968 2.42501 19.442 2.47001 18.922C3.60943 19.0414 4.75435 19.1008 5.90001 19.1C11.0292 19.0278 16.1151 18.1505 20.972 16.5C21.7617 18.1169 22.4683 19.773 23.089 21.462C21.0729 22.1863 19.1307 23.1018 17.289 24.196C12.789 26.876 9.48901 30.324 8.12701 33.702C6.31812 32.0118 4.87625 29.9676 3.89102 27.6964C2.90579 25.4252 2.39827 22.9757 2.40001 20.5ZM20.5 38.6C16.7754 38.6025 13.1418 37.4495 10.1 35.3C11.013 32.215 14.1 28.879 18.517 26.25C20.2182 25.2441 22.0117 24.4033 23.873 23.739C25.2962 28.2358 26.1486 32.8936 26.41 37.603C24.5095 38.263 22.5119 38.6 20.5 38.6ZM28.754 36.6C28.4309 31.9847 27.5581 27.4244 26.154 23.016C30.1574 21.8275 34.4012 21.7017 38.468 22.651C38.1112 25.5926 37.0392 28.402 35.3459 30.8337C33.6525 33.2653 31.3893 35.2451 28.754 36.6Z" fill="white"/>
<g id="Group 103">
<g id="Group 63">
<g id="Group 62">
<path id="Path 18" d="M19.644 129.569C18.6604 128.328 17.2983 127.442 15.765 127.046C16.9612 126.494 17.9747 125.612 18.686 124.503C19.318 123.497 19.6532 122.334 19.653 121.146C19.6451 119.844 19.2671 118.571 18.563 117.475C17.8509 116.317 16.7971 115.409 15.547 114.875C13.9165 114.249 12.1761 113.961 10.431 114.027H0V141.841H10.6C12.1089 141.87 13.6158 141.715 15.087 141.378C16.1829 141.124 17.2177 140.656 18.132 140.001C19.0075 139.313 19.7065 138.425 20.171 137.413C20.7231 136.282 21.0055 135.039 20.996 133.78C21.0307 132.264 20.5545 130.781 19.644 129.569ZM3.68 125.715V117.315H9.239C10.6606 117.255 12.0839 117.385 13.471 117.702C14.2595 117.934 14.9355 118.447 15.371 119.144C15.822 119.876 16.0528 120.723 16.036 121.583C16.0689 122.448 15.8189 123.301 15.324 124.011C14.7918 124.695 14.0475 125.182 13.208 125.397C12.0579 125.658 10.8785 125.767 9.7 125.72H3.68V125.715ZM16.64 136.123C16.3157 136.752 15.8332 137.285 15.24 137.671C14.5856 138.055 13.8647 138.312 13.115 138.428C12.2865 138.539 11.4506 138.585 10.615 138.564H3.68V129H10.111C11.4831 128.949 12.8549 129.107 14.18 129.466C15.0763 129.742 15.8546 130.309 16.391 131.078C16.9322 131.873 17.2119 132.817 17.191 133.778C17.2078 134.594 17.0182 135.4 16.64 136.123Z" fill="white"/>
</g>
</g>
<g id="Group 65">
<g id="Group 64">
<path id="Path 19" d="M41.001 131.397C41.001 128.07 40.1473 125.489 38.44 123.655C37.6021 122.749 36.5789 122.034 35.4401 121.558C34.3013 121.083 33.0735 120.858 31.84 120.899C30.5731 120.854 29.3113 121.082 28.1398 121.566C26.9683 122.051 25.9143 122.781 25.049 123.707C23.3037 125.581 22.431 128.212 22.431 131.601C22.431 134.876 23.2937 137.422 25.019 139.239C26.7374 140.798 28.924 141.743 31.2367 141.926C33.5494 142.109 35.8576 141.521 37.8 140.252C39.3459 139.05 40.4358 137.357 40.89 135.452L37.361 135.02C36.9855 136.255 36.2514 137.351 35.252 138.169C34.3228 138.841 33.1981 139.187 32.052 139.155C31.2652 139.174 30.4832 139.027 29.7571 138.723C29.031 138.419 28.3771 137.966 27.838 137.392C26.623 135.977 25.9571 134.173 25.962 132.308H40.988C40.996 131.901 41.001 131.598 41.001 131.397ZM26.147 129.497C26.183 127.92 26.8155 126.415 27.917 125.286C28.4366 124.771 29.0547 124.366 29.7344 124.095C30.4142 123.824 31.1415 123.693 31.873 123.71C32.6832 123.689 33.4872 123.857 34.2216 124.2C34.956 124.543 35.6007 125.052 36.105 125.686C36.9069 126.8 37.3567 128.128 37.396 129.5L26.147 129.497Z" fill="white"/>
</g>
</g>
<g id="Group 67">
<g id="Group 66">
<path id="Path 20" d="M37.551 117.204H26.139L26.11 120.012H37.571L37.551 117.204Z" fill="white"/>
</g>
</g>
</g>
<g id="Group 104">
<g id="Rectangle 51">
<path id="Vector" d="M29 216.5H12C6.20101 216.5 1.5 221.201 1.5 227V244C1.5 249.799 6.20101 254.5 12 254.5H29C34.799 254.5 39.5 249.799 39.5 244V227C39.5 221.201 34.799 216.5 29 216.5Z" stroke="white" stroke-width="3"/>
</g>
<g id="Ellipse 54">
<path id="Vector_2" d="M21 241.5C24.0376 241.5 26.5 239.038 26.5 236C26.5 232.962 24.0376 230.5 21 230.5C17.9624 230.5 15.5 232.962 15.5 236C15.5 239.038 17.9624 241.5 21 241.5Z" stroke="white" stroke-width="3"/>
</g>
<g id="Ellipse 55">
<path id="Vector_3" d="M30 227C31.6569 227 33 225.657 33 224C33 222.343 31.6569 221 30 221C28.3431 221 27 222.343 27 224C27 225.657 28.3431 227 30 227Z" fill="white"/>
<path id="Vector_4" d="M30 225.5C30.8284 225.5 31.5 224.828 31.5 224C31.5 223.172 30.8284 222.5 30 222.5C29.1716 222.5 28.5 223.172 28.5 224C28.5 224.828 29.1716 225.5 30 225.5Z" stroke="white" stroke-width="3"/>
</g>
</g>
</g>
</svg>
