<svg width="80" height="13" viewBox="0 0 80 13" fill="none" xmlns="http://www.w3.org/2000/svg">
<path id="Arrow 3" d="M79.3866 6.84119L74.7645 2.05808L69.8147 6.84119L74.4368 11.6243L79.3866 6.84119ZM0.303106 6.25539C-0.0316973 6.57892 -0.0496626 7.10347 0.26298 7.427L5.35777 12.6993C5.67041 13.0228 6.19528 13.0228 6.53007 12.6993C6.86488 12.3757 6.88284 11.8512 6.5702 11.5277L2.0415 6.84119L6.89121 2.15473C7.22601 1.8312 7.24398 1.30665 6.93134 0.983113C6.6187 0.659579 6.09384 0.65958 5.75904 0.983113L0.303106 6.25539ZM74.629 6.01273L0.897568 6.01274L0.84082 7.66965L74.5723 7.66964L74.629 6.01273Z" fill="#2D2D2D"/>
</svg>
