<svg width="36" height="36" viewBox="0 0 36 36" fill="none" xmlns="http://www.w3.org/2000/svg">
<g id="behance">
<path id="Vector" d="M11.7045 8.59656C12.588 8.59656 13.383 8.67306 14.112 8.82906C14.8365 8.98356 15.4545 9.23856 15.9765 9.59106C16.491 9.94356 16.893 10.4116 17.1825 10.9996C17.463 11.5801 17.6025 12.3061 17.6025 13.1641C17.6025 14.0941 17.3925 14.8711 16.971 15.4906C16.5465 16.1116 15.921 16.6201 15.087 17.0131C16.2225 17.3416 17.064 17.9161 17.622 18.7321C18.183 19.5556 18.4575 20.5411 18.4575 21.6961C18.4575 22.6336 18.279 23.4391 17.9205 24.1156C17.575 24.782 17.0738 25.3552 16.4595 25.7866C15.8232 26.2297 15.1124 26.5548 14.361 26.7466C13.5732 26.9533 12.762 27.0572 11.9475 27.0556H3V8.59656H11.7045ZM11.178 16.0546C11.898 16.0546 12.495 15.8836 12.966 15.5371C13.434 15.1951 13.6605 14.6311 13.6605 13.8586C13.6605 13.4296 13.584 13.0756 13.434 12.7981C13.2879 12.5311 13.0716 12.3091 12.8085 12.1561C12.5331 11.9928 12.2292 11.8833 11.913 11.8336C11.5683 11.7693 11.2181 11.7386 10.8675 11.7421H7.065V16.0546H11.178ZM11.4045 23.9131C11.805 23.9131 12.186 23.8786 12.5445 23.7976C12.906 23.7196 13.227 23.5936 13.5 23.4061C13.773 23.2261 13.998 22.9816 14.16 22.6696C14.3235 22.3606 14.403 21.9571 14.403 21.4726C14.403 20.5216 14.1345 19.8451 13.6035 19.4356C13.071 19.0306 12.357 18.8296 11.4825 18.8296H7.065V23.9146H11.4045V23.9131ZM24.252 23.8516C24.8025 24.3886 25.596 24.6586 26.628 24.6586C27.3675 24.6586 28.0065 24.4711 28.545 24.0991C29.076 23.7256 29.4 23.3266 29.5245 22.9141H32.757C32.238 24.5221 31.4505 25.6711 30.3735 26.3626C29.31 27.0571 28.0155 27.4021 26.5035 27.4021C25.4505 27.4021 24.5025 27.2326 23.6535 26.8966C22.8386 26.5792 22.1022 26.0889 21.495 25.4596C20.8978 24.8155 20.4362 24.058 20.1375 23.2321C19.8092 22.3187 19.6466 21.3541 19.6575 20.3836C19.6575 19.3846 19.824 18.4501 20.151 17.5876C20.4614 16.7538 20.9381 15.9919 21.552 15.3481C22.1595 14.7181 22.8795 14.2216 23.718 13.8571C24.5997 13.4862 25.5485 13.3014 26.505 13.3141C27.636 13.3141 28.6245 13.5331 29.4735 13.9741C30.2968 14.395 31.0107 15.0021 31.5585 15.7471C32.103 16.4866 32.4915 17.3341 32.733 18.2836C32.9745 19.2316 33.0585 20.2216 32.9895 21.2581H23.343C23.3445 22.3141 23.7 23.3146 24.252 23.8516ZM28.47 16.8301C28.0335 16.3471 27.2955 16.0861 26.3925 16.0861C25.806 16.0861 25.3215 16.1836 24.9315 16.3846C24.5749 16.5647 24.2585 16.8152 24.0015 17.1211C23.7758 17.3987 23.6084 17.7191 23.5095 18.0631C23.423 18.3498 23.3672 18.645 23.343 18.9436H29.316C29.229 18.0076 28.908 17.3161 28.47 16.8301ZM22.593 9.83556H30.0765V11.6581H22.593V9.83556Z" fill="black"/>
</g>
</svg>
