<svg width="36" height="36" viewBox="0 0 36 36" fill="none" xmlns="http://www.w3.org/2000/svg">
<g id="discord">
<g id="Vector">
<path d="M14.3895 16.4565C13.5765 16.4565 12.936 17.169 12.936 18.039C12.936 18.906 13.5915 19.6215 14.3895 19.6215C15.201 19.6215 15.8415 18.906 15.8415 18.039C15.858 17.1675 15.201 16.4565 14.3895 16.4565ZM19.5915 16.4565C18.7785 16.4565 18.138 17.169 18.138 18.039C18.138 18.906 18.7935 19.6215 19.5915 19.6215C20.403 19.6215 21.0435 18.906 21.0435 18.039C21.042 17.1675 20.403 16.4565 19.5915 16.4565Z" fill="black"/>
<path d="M26.517 4.5H7.42051C7.036 4.50098 6.65545 4.57769 6.30058 4.72575C5.94572 4.8738 5.62349 5.09031 5.35229 5.36289C5.0811 5.63548 4.86625 5.95881 4.72002 6.31443C4.57378 6.67005 4.49902 7.05099 4.50001 7.4355V26.7015C4.50001 28.326 5.81101 29.637 7.42051 29.637H23.58L22.8225 26.9985L24.648 28.695L26.3715 30.291L29.4375 33V7.4355C29.4385 7.05099 29.3637 6.67005 29.2175 6.31443C29.0713 5.95881 28.8564 5.63548 28.5852 5.36289C28.314 5.09031 27.9918 4.8738 27.6369 4.72575C27.2821 4.57769 26.9015 4.50098 26.517 4.5ZM21.015 23.1105C21.015 23.1105 20.502 22.4985 20.076 21.954C21.942 21.426 22.6545 20.259 22.6545 20.259C22.0695 20.643 21.5145 20.916 21.015 21.102C19.1965 21.8631 17.194 22.0707 15.258 21.699C14.5427 21.5585 13.8417 21.3526 13.164 21.084C12.8066 20.9482 12.4592 20.7873 12.1245 20.6025C12.081 20.571 12.039 20.559 11.997 20.5305C11.9745 20.5198 11.9546 20.5045 11.9385 20.4855C11.682 20.3445 11.5395 20.2455 11.5395 20.2455C11.5395 20.2455 12.2235 21.3855 14.034 21.927C13.6065 22.467 13.0785 23.1105 13.0785 23.1105C9.93001 23.01 8.73451 20.9445 8.73451 20.9445C8.73451 16.356 10.7865 12.6375 10.7865 12.6375C12.8385 11.097 14.79 11.1405 14.79 11.1405L14.9325 11.3115C12.3675 12.054 11.184 13.179 11.184 13.179C11.184 13.179 11.499 13.008 12.0255 12.7665C13.5495 12.0975 14.76 11.9115 15.2595 11.868C15.345 11.8545 15.417 11.8395 15.5025 11.8395C17.9733 11.5065 20.4857 11.9761 22.6695 13.179C22.6695 13.179 21.543 12.111 19.1205 11.37L19.32 11.142C19.32 11.142 21.273 11.0985 23.3235 12.639C23.3235 12.639 25.3755 16.3575 25.3755 20.946C25.3755 20.946 24.165 23.01 21.015 23.1105Z" fill="black"/>
</g>
</g>
</svg>
