<svg width="36" height="36" viewBox="0 0 36 36" fill="none" xmlns="http://www.w3.org/2000/svg">
<g id="dribbble">
<path id="Vector" d="M30.99 10.47C29.6811 8.20159 27.7973 6.31831 25.5285 5.01C23.229 3.6705 20.7195 3 18 3C15.2805 3 12.771 3.6705 10.47 5.01C8.1705 6.3495 6.3495 8.1705 5.01 10.47C3.6705 12.7695 3 15.2805 3 18C3 20.7195 3.669 23.2305 5.01 25.53C6.31848 27.7988 8.20238 29.6821 10.4715 30.99C12.771 32.3295 15.2805 33 18 33C20.7195 33 23.229 32.3295 25.53 30.99C27.7988 29.6817 29.6826 27.7984 30.9915 25.53C32.331 23.2305 33 20.7195 33 18C33 15.2805 32.331 12.7695 30.99 10.47ZM18 5.49C21 5.49 23.658 6.45 25.98 8.3685C24.6 10.1295 22.551 11.5785 19.83 12.7185C18.327 9.999 16.698 7.728 14.9385 5.9085C15.9357 5.63277 16.9654 5.49202 18 5.49ZM8.265 10.2C9.36186 8.80714 10.7497 7.67066 12.3315 6.87C14.1495 8.6715 15.819 10.92 17.3415 13.62C14.3415 14.52 11.1705 14.97 7.83 14.97C6.9705 14.97 6.321 14.9505 5.88 14.91C6.33971 13.1916 7.15192 11.5876 8.265 10.2ZM5.49 18C5.49 17.919 5.4945 17.82 5.505 17.7C5.5155 17.58 5.52 17.481 5.52 17.4C5.901 17.421 6.4815 17.43 7.2615 17.43C11.2605 17.43 14.9805 16.8795 18.42 15.78C18.7005 16.3395 18.9915 16.9695 19.29 17.67C17.31 18.1095 15.279 19.179 13.1985 20.88C11.118 22.581 9.6 24.3705 8.64 26.25C6.54 23.8695 5.49 21.12 5.49 18ZM18 30.51C15.159 30.51 12.609 29.6295 10.3485 27.8715C11.25 26.091 12.6345 24.3885 14.505 22.77C16.374 21.15 18.2295 20.1405 20.07 19.74C21.231 22.9485 22.0162 26.2807 22.41 29.67C21.0043 30.2193 19.5092 30.5041 18 30.51ZM28.62 24.57C27.6382 26.1518 26.3161 27.4949 24.75 28.5015C24.39 25.3815 23.7 22.341 22.6815 19.38C24.0795 19.281 25.329 19.23 26.4315 19.23C27.63 19.23 28.9605 19.281 30.42 19.38C30.2242 21.2248 29.6084 23.0001 28.62 24.57ZM26.76 17.07C25.02 17.07 23.4105 17.1405 21.93 17.28C21.6164 16.4592 21.2762 15.6487 20.91 14.85C24.009 13.491 26.208 11.841 27.5085 9.9C29.3085 12.021 30.2895 14.4405 30.4485 17.16C29.2305 17.1 28.0005 17.07 26.76 17.07Z" fill="black"/>
</g>
</svg>
