<svg width="21" height="21" viewBox="0 0 21 21" fill="none" xmlns="http://www.w3.org/2000/svg">
<g id="Star">
<path id="Star_2" d="M10.0232 1.93515C10.39 1.1919 11.4498 1.1919 11.8167 1.93515L13.6262 5.60164C13.7718 5.89678 14.0534 6.10135 14.3791 6.14868L18.4253 6.73663C19.2455 6.85581 19.5731 7.86378 18.9795 8.44232L16.0517 11.2963C15.816 11.526 15.7084 11.857 15.7641 12.1814L16.4553 16.2113C16.5954 17.0282 15.7379 17.6511 15.0043 17.2654L11.3853 15.3628C11.0939 15.2097 10.7459 15.2097 10.4546 15.3628L6.83554 17.2654C6.10191 17.6511 5.24448 17.0282 5.38459 16.2113L6.07577 12.1814C6.13141 11.857 6.02386 11.526 5.78817 11.2963L2.86031 8.44232C2.26679 7.86378 2.5943 6.85581 3.41452 6.73663L7.46073 6.14868C7.78644 6.10135 8.068 5.89678 8.21367 5.60164L10.0232 1.93515Z" fill="#2D2D2D"/>
</g>
</svg>
