<svg width="151" height="151" viewBox="0 0 151 151" fill="none" xmlns="http://www.w3.org/2000/svg">
<g id="Arrow down">
<rect id="Rectangle 61" width="151" height="151" rx="2" fill="#1F1F1F"/>
<path id="Arrow 1" d="M77.5 48C77.5 47.1716 76.8284 46.5 76 46.5C75.1716 46.5 74.5 47.1716 74.5 48L77.5 48ZM74.9393 104.061C75.5251 104.646 76.4749 104.646 77.0607 104.061L86.6066 94.5147C87.1924 93.9289 87.1924 92.9792 86.6066 92.3934C86.0208 91.8076 85.0711 91.8076 84.4853 92.3934L76 100.879L67.5147 92.3934C66.9289 91.8076 65.9792 91.8076 65.3934 92.3934C64.8076 92.9792 64.8076 93.9289 65.3934 94.5147L74.9393 104.061ZM74.5 48L74.5 103L77.5 103L77.5 48L74.5 48Z" fill="white"/>
</g>
</svg>
