<svg width="73" height="73" viewBox="0 0 73 73" fill="none" xmlns="http://www.w3.org/2000/svg">
<g id="Left arrow">
<rect id="Rectangle 67" width="73" height="73" rx="4" fill="#F1F1F1"/>
<path id="Arrow 3" d="M21.9393 35.9393C21.3536 36.5251 21.3536 37.4749 21.9393 38.0607L31.4853 47.6066C32.0711 48.1924 33.0208 48.1924 33.6066 47.6066C34.1924 47.0208 34.1924 46.0711 33.6066 45.4853L25.1213 37L33.6066 28.5147C34.1924 27.9289 34.1924 26.9792 33.6066 26.3934C33.0208 25.8076 32.0711 25.8076 31.4853 26.3934L21.9393 35.9393ZM49 38.5C49.8284 38.5 50.5 37.8284 50.5 37C50.5 36.1716 49.8284 35.5 49 35.5V38.5ZM23 38.5H49V35.5H23V38.5Z" fill="#464646"/>
</g>
</svg>
