<svg width="177" height="48" viewBox="0 0 177 48" fill="none" xmlns="http://www.w3.org/2000/svg">
<g id="Logo 2" clip-path="url(#clip0_1_146)">
<path id="Vector" d="M41.9277 17.9805V37.0001H35.9863V17.9805H41.9277ZM35.6348 13.0762C35.6348 12.2325 35.9395 11.5411 36.5488 11.002C37.1582 10.463 37.9492 10.1934 38.9219 10.1934C39.8945 10.1934 40.6855 10.463 41.2949 11.002C41.9043 11.5411 42.209 12.2325 42.209 13.0762C42.209 13.92 41.9043 14.6114 41.2949 15.1505C40.6855 15.6895 39.8945 15.959 38.9219 15.959C37.9492 15.959 37.1582 15.6895 36.5488 15.1505C35.9395 14.6114 35.6348 13.92 35.6348 13.0762ZM52.4395 32.9395L56.1836 17.9805H62.4238L56.2012 37.0001H52.5098L52.4395 32.9395ZM50.2246 17.9805L53.916 32.9395L53.8809 37.0001H50.1719L43.9668 17.9805H50.2246ZM73.7793 32.2188V24.379C73.7793 23.8399 73.7031 23.377 73.5508 22.9903C73.3984 22.6036 73.1582 22.3047 72.8301 22.0938C72.502 21.8712 72.0625 21.7598 71.5117 21.7598C71.0664 21.7598 70.6855 21.836 70.3691 21.9883C70.0527 22.1407 69.8125 22.3692 69.6484 22.6739C69.4844 22.9786 69.4023 23.3653 69.4023 23.834H63.4785C63.4785 22.9551 63.6719 22.1407 64.0586 21.3907C64.457 20.629 65.0195 19.9669 65.7461 19.4044C66.4844 18.8419 67.3633 18.4083 68.3828 18.1036C69.4141 17.7872 70.5625 17.629 71.8281 17.629C73.3398 17.629 74.6875 17.8809 75.8711 18.3848C77.0664 18.8887 78.0098 19.6446 78.7012 20.6524C79.3926 21.6485 79.7383 22.9024 79.7383 24.4141V32.2012C79.7383 33.4434 79.8086 34.3868 79.9492 35.0313C80.0898 35.6641 80.2891 36.2208 80.5469 36.7012V37.0001H74.6055C74.3242 36.4141 74.1133 35.6993 73.9727 34.8555C73.8438 34.0001 73.7793 33.1212 73.7793 32.2188ZM74.5 25.3809L74.5352 28.545H71.916C71.3652 28.545 70.8965 28.6212 70.5098 28.7735C70.1348 28.9258 69.8301 29.1368 69.5957 29.4063C69.373 29.6641 69.209 29.9571 69.1035 30.2852C69.0098 30.6133 68.9629 30.959 68.9629 31.3223C68.9629 31.6739 69.0449 31.9903 69.209 32.2715C69.3848 32.5411 69.6191 32.752 69.9121 32.9044C70.2051 33.0567 70.5332 33.1329 70.8965 33.1329C71.5527 33.1329 72.1094 33.0098 72.5664 32.7637C73.0352 32.5059 73.3926 32.1954 73.6387 31.8321C73.8848 31.4688 74.0078 31.129 74.0078 30.8126L75.3086 33.2383C75.0742 33.7071 74.8047 34.1817 74.5 34.6622C74.207 35.1426 73.8379 35.588 73.3926 35.9981C72.959 36.3965 72.4258 36.7247 71.793 36.9825C71.1602 37.2286 70.3926 37.3516 69.4902 37.3516C68.3184 37.3516 67.2402 37.1114 66.2559 36.6309C65.2832 36.1505 64.5039 35.4825 63.918 34.627C63.332 33.7598 63.0391 32.7637 63.0391 31.6387C63.0391 30.6544 63.2148 29.7755 63.5664 29.002C63.9297 28.2286 64.4746 27.5723 65.2012 27.0333C65.9277 26.4942 66.8535 26.084 67.9785 25.8028C69.1035 25.5215 70.4277 25.3809 71.9512 25.3809H74.5ZM91.6211 37.0001H85.9434L85.9785 32.254H91.6211C92.793 32.254 93.7832 31.9727 94.5918 31.4102C95.4121 30.8477 96.0332 30.0098 96.4551 28.8965C96.8887 27.7715 97.1055 26.3887 97.1055 24.7481V23.6407C97.1055 22.4102 96.9824 21.3321 96.7363 20.4063C96.502 19.4688 96.1504 18.6895 95.6816 18.0684C95.2129 17.4356 94.627 16.961 93.9238 16.6446C93.2324 16.3282 92.4355 16.17 91.5332 16.17H85.8379V11.4063H91.5332C93.2676 11.4063 94.8555 11.7051 96.2969 12.3028C97.75 12.8887 99.0039 13.7325 100.059 14.834C101.125 15.9239 101.945 17.2188 102.52 18.7188C103.105 20.2071 103.398 21.8594 103.398 23.6758V24.7481C103.398 26.5528 103.105 28.2051 102.52 29.7051C101.945 31.2051 101.131 32.5001 100.076 33.5899C99.0215 34.6797 97.7734 35.5235 96.332 36.1212C94.9023 36.7071 93.332 37.0001 91.6211 37.0001ZM89.4766 11.4063V37.0001H83.3066V11.4063H89.4766ZM115.545 37.3516C113.998 37.3516 112.615 37.1114 111.396 36.6309C110.178 36.1387 109.146 35.4649 108.303 34.6094C107.471 33.754 106.832 32.7696 106.387 31.6563C105.953 30.543 105.736 29.3653 105.736 28.1231V27.4551C105.736 26.0606 105.93 24.7715 106.316 23.588C106.703 22.3926 107.277 21.3497 108.039 20.459C108.801 19.5684 109.756 18.877 110.904 18.3848C112.053 17.8809 113.389 17.629 114.912 17.629C116.26 17.629 117.467 17.8458 118.533 18.2794C119.6 18.713 120.502 19.334 121.24 20.1426C121.99 20.9512 122.559 21.9297 122.945 23.0782C123.344 24.2266 123.543 25.5157 123.543 26.9454V29.3536H108.004V25.6446H117.76V25.1876C117.771 24.5547 117.66 24.0157 117.426 23.5704C117.203 23.1251 116.875 22.7852 116.441 22.5508C116.008 22.3165 115.48 22.1993 114.859 22.1993C114.215 22.1993 113.682 22.3399 113.26 22.6212C112.85 22.9024 112.527 23.2891 112.293 23.7813C112.07 24.2618 111.912 24.8184 111.818 25.4512C111.725 26.084 111.678 26.752 111.678 27.4551V28.1231C111.678 28.8262 111.771 29.4649 111.959 30.0391C112.158 30.6133 112.439 31.1055 112.803 31.5157C113.178 31.9141 113.623 32.2247 114.139 32.4473C114.666 32.67 115.264 32.7813 115.932 32.7813C116.74 32.7813 117.537 32.629 118.322 32.3243C119.107 32.0196 119.781 31.5157 120.344 30.8126L123.033 34.0118C122.646 34.5626 122.096 35.0958 121.381 35.6114C120.678 36.127 119.834 36.5489 118.85 36.877C117.865 37.1934 116.764 37.3516 115.545 37.3516ZM133.984 32.7813C134.535 32.7813 135.004 32.6817 135.391 32.4825C135.789 32.2715 136.088 31.9786 136.287 31.6036C136.498 31.2169 136.598 30.754 136.586 30.2149H142.158C142.17 31.6446 141.818 32.8985 141.104 33.9766C140.4 35.043 139.439 35.8751 138.221 36.4727C137.014 37.0587 135.648 37.3516 134.125 37.3516C132.637 37.3516 131.336 37.1114 130.223 36.6309C129.109 36.1387 128.178 35.459 127.428 34.5919C126.689 33.713 126.133 32.6876 125.758 31.5157C125.395 30.3438 125.213 29.0723 125.213 27.7012V27.2969C125.213 25.9258 125.395 24.6544 125.758 23.4825C126.133 22.2989 126.689 21.2735 127.428 20.4063C128.178 19.5274 129.104 18.8477 130.205 18.3672C131.318 17.8751 132.613 17.629 134.09 17.629C135.672 17.629 137.066 17.9278 138.273 18.5255C139.492 19.1231 140.447 19.9903 141.139 21.127C141.83 22.2637 142.17 23.6407 142.158 25.2579H136.586C136.598 24.6837 136.51 24.168 136.322 23.711C136.135 23.254 135.842 22.8907 135.443 22.6212C135.057 22.3399 134.559 22.1993 133.949 22.1993C133.34 22.1993 132.848 22.334 132.473 22.6036C132.098 22.8731 131.811 23.2481 131.611 23.7286C131.424 24.1973 131.295 24.7364 131.225 25.3458C131.166 25.9551 131.137 26.6055 131.137 27.2969V27.7012C131.137 28.4044 131.166 29.0665 131.225 29.6876C131.295 30.2969 131.43 30.836 131.629 31.3047C131.828 31.7618 132.115 32.1251 132.49 32.3946C132.865 32.6524 133.363 32.7813 133.984 32.7813ZM143.951 27.6837V27.3145C143.951 25.92 144.15 24.6368 144.549 23.4649C144.947 22.2813 145.533 21.2559 146.307 20.3887C147.08 19.5215 148.035 18.8477 149.172 18.3672C150.309 17.8751 151.621 17.629 153.109 17.629C154.609 17.629 155.928 17.8751 157.064 18.3672C158.213 18.8477 159.174 19.5215 159.947 20.3887C160.721 21.2559 161.307 22.2813 161.705 23.4649C162.104 24.6368 162.303 25.92 162.303 27.3145V27.6837C162.303 29.0665 162.104 30.3497 161.705 31.5333C161.307 32.7051 160.721 33.7305 159.947 34.6094C159.174 35.4766 158.219 36.1505 157.082 36.6309C155.945 37.1114 154.633 37.3516 153.145 37.3516C151.656 37.3516 150.338 37.1114 149.189 36.6309C148.041 36.1505 147.08 35.4766 146.307 34.6094C145.533 33.7305 144.947 32.7051 144.549 31.5333C144.15 30.3497 143.951 29.0665 143.951 27.6837ZM149.875 27.3145V27.6837C149.875 28.3985 149.928 29.0665 150.033 29.6876C150.139 30.3087 150.314 30.8536 150.561 31.3223C150.807 31.7794 151.141 32.1368 151.562 32.3946C151.984 32.6524 152.512 32.7813 153.145 32.7813C153.766 32.7813 154.281 32.6524 154.691 32.3946C155.113 32.1368 155.447 31.7794 155.693 31.3223C155.939 30.8536 156.115 30.3087 156.221 29.6876C156.326 29.0665 156.379 28.3985 156.379 27.6837V27.3145C156.379 26.6231 156.326 25.9727 156.221 25.3633C156.115 24.7422 155.939 24.1973 155.693 23.7286C155.447 23.2481 155.113 22.8731 154.691 22.6036C154.27 22.334 153.742 22.1993 153.109 22.1993C152.488 22.1993 151.967 22.334 151.545 22.6036C151.135 22.8731 150.807 23.2481 150.561 23.7286C150.314 24.1973 150.139 24.7422 150.033 25.3633C149.928 25.9727 149.875 26.6231 149.875 27.3145ZM170.916 22.6915V37.0001H164.992V17.9805H170.529L170.916 22.6915ZM176.541 17.8399L176.436 23.3419C176.201 23.3184 175.885 23.2891 175.486 23.254C175.088 23.2188 174.754 23.2012 174.484 23.2012C173.793 23.2012 173.195 23.2833 172.691 23.4473C172.199 23.5997 171.789 23.834 171.461 24.1505C171.145 24.4551 170.91 24.8419 170.758 25.3106C170.617 25.7794 170.553 26.3243 170.564 26.9454L169.492 26.2422C169.492 24.9649 169.615 23.8047 169.861 22.7618C170.119 21.7071 170.482 20.7989 170.951 20.0372C171.42 19.2637 171.988 18.6719 172.656 18.2618C173.324 17.8399 174.074 17.629 174.906 17.629C175.199 17.629 175.486 17.6465 175.768 17.6817C176.061 17.7169 176.318 17.7696 176.541 17.8399Z" fill="white"/>
<path id="Vector_2" d="M17.1321 37C16.9263 37 16.7416 36.8739 16.6665 36.6823L7.26721 12.6823C7.13877 12.3544 7.38059 12 7.73278 12H13.6631C13.8705 12 14.0564 12.1281 14.1303 12.3219L22.0009 32.9647C22.1257 33.292 21.884 33.6429 21.5337 33.6429H18.8654C18.5135 33.6429 18.2717 33.2889 18.3996 32.961L26.4577 12.3182C26.5326 12.1263 26.7175 12 26.9234 12H32.2663C32.6187 12 32.8606 12.3548 32.7317 12.6829L23.3009 36.6829C23.2258 36.8742 23.0411 37 22.8356 37H17.1321Z" fill="white"/>
<path id="Vector_3" fill-rule="evenodd" clip-rule="evenodd" d="M35 0H5C2.23858 0 0 2.23857 0 5V43C0 45.7614 2.23858 48 5 48H35C37.7614 48 40 45.7614 40 43C40 42.4477 39.5523 42 39 42H37C36.4477 42 36 42.4477 36 43C36 43.5523 35.5523 44 35 44H5C4.44772 44 4 43.5523 4 43V5C4 4.44771 4.44772 4 5 4H35C35.5523 4 36 4.44772 36 5C36 5.55228 36.4477 6 37 6H39C39.5523 6 40 5.55228 40 5C40 2.23858 37.7614 0 35 0Z" fill="white"/>
</g>
<defs>
<clipPath id="clip0_1_146">
<rect width="177" height="48" fill="white"/>
</clipPath>
</defs>
</svg>
