<svg width="73" height="73" viewBox="0 0 73 73" fill="none" xmlns="http://www.w3.org/2000/svg">
<g id="Right arrow">
<rect id="Rectangle 68" width="73" height="73" rx="4" fill="#F1F1F1"/>
<path id="Arrow 2" d="M23 35.5C22.1716 35.5 21.5 36.1716 21.5 37C21.5 37.8284 22.1716 38.5 23 38.5V35.5ZM50.0607 38.0607C50.6464 37.4749 50.6464 36.5251 50.0607 35.9393L40.5147 26.3934C39.9289 25.8076 38.9792 25.8076 38.3934 26.3934C37.8076 26.9792 37.8076 27.9289 38.3934 28.5147L46.8787 37L38.3934 45.4853C37.8076 46.0711 37.8076 47.0208 38.3934 47.6066C38.9792 48.1924 39.9289 48.1924 40.5147 47.6066L50.0607 38.0607ZM23 38.5H49V35.5H23V38.5Z" fill="#464646"/>
</g>
</svg>
