<svg width="36" height="36" viewBox="0 0 36 36" fill="none" xmlns="http://www.w3.org/2000/svg">
<g id="X">
<rect id="Rectangle 72" width="36" height="36" rx="4" fill="#313131"/>
<g id="twitter">
<path id="Vector" d="M29.069 9.01009C29.069 9.01009 27.0448 10.2059 25.9191 10.5449C25.315 9.85023 24.512 9.35787 23.619 9.1344C22.7259 8.91094 21.7857 8.96715 20.9256 9.29543C20.0655 9.62372 19.3269 10.2082 18.8099 10.9699C18.2928 11.7316 18.0222 12.6337 18.0345 13.5543V14.5574C16.2716 14.6031 14.5248 14.2122 12.9496 13.4193C11.3744 12.6265 10.0198 11.4564 9.00627 10.0132C9.00627 10.0132 4.99373 19.0415 14.022 23.054C11.956 24.4563 9.49496 25.1595 7 25.0603C16.0282 30.076 27.0627 25.0603 27.0627 13.5242C27.0618 13.2448 27.0349 12.966 26.9825 12.6916C28.0063 11.6819 29.069 9.01009 29.069 9.01009Z" stroke="white" stroke-width="2.5" stroke-linecap="round" stroke-linejoin="round"/>
</g>
</g>
</svg>
