<svg width="33" height="32" viewBox="0 0 33 32" fill="none" xmlns="http://www.w3.org/2000/svg">
<g id="Figma">
<path id="Vector" d="M16.5 16C16.5 15.1159 16.8687 14.2681 17.5251 13.643C18.1815 13.0179 19.0717 12.6667 20 12.6667C20.9283 12.6667 21.8185 13.0179 22.4749 13.643C23.1313 14.2681 23.5 15.1159 23.5 16C23.5 16.8841 23.1313 17.7319 22.4749 18.357C21.8185 18.9821 20.9283 19.3333 20 19.3333C19.0717 19.3333 18.1815 18.9821 17.5251 18.357C16.8687 17.7319 16.5 16.8841 16.5 16ZM9.5 22.6667C9.5 21.7826 9.86875 20.9348 10.5251 20.3096C11.1815 19.6845 12.0717 19.3333 13 19.3333H16.5V22.6667C16.5 23.5507 16.1313 24.3986 15.4749 25.0237C14.8185 25.6488 13.9283 26 13 26C12.0717 26 11.1815 25.6488 10.5251 25.0237C9.86875 24.3986 9.5 23.5507 9.5 22.6667ZM16.5 6V12.6667H20C20.9283 12.6667 21.8185 12.3155 22.4749 11.6904C23.1313 11.0652 23.5 10.2174 23.5 9.33333C23.5 8.44928 23.1313 7.60143 22.4749 6.97631C21.8185 6.35119 20.9283 6 20 6H16.5ZM9.5 9.33333C9.5 10.2174 9.86875 11.0652 10.5251 11.6904C11.1815 12.3155 12.0717 12.6667 13 12.6667H16.5V6H13C12.0717 6 11.1815 6.35119 10.5251 6.97631C9.86875 7.60143 9.5 8.44928 9.5 9.33333ZM9.5 16C9.5 16.8841 9.86875 17.7319 10.5251 18.357C11.1815 18.9821 12.0717 19.3333 13 19.3333H16.5V12.6667H13C12.0717 12.6667 11.1815 13.0179 10.5251 13.643C9.86875 14.2681 9.5 15.1159 9.5 16Z" fill="#ABB2BF"/>
</g>
</svg>
