<svg width="33" height="32" viewBox="0 0 33 32" fill="none" xmlns="http://www.w3.org/2000/svg">
<g id="Github">
<path id="Vector" d="M16 6C10.1988 6 5.5 10.5882 5.5 16.2529C5.5 20.7899 8.50562 24.6219 12.6794 25.9804C13.2044 26.0701 13.4012 25.7625 13.4012 25.4934C13.4012 25.2499 13.3881 24.4425 13.3881 23.5838C10.75 24.058 10.0675 22.9558 9.8575 22.3791C9.73938 22.0843 9.2275 21.1743 8.78125 20.9308C8.41375 20.7386 7.88875 20.2644 8.76813 20.2516C9.595 20.2388 10.1856 20.9949 10.3825 21.3025C11.3275 22.8533 12.8369 22.4175 13.4406 22.1484C13.5325 21.4819 13.8081 21.0334 14.11 20.777C11.7737 20.5207 9.3325 19.6364 9.3325 15.7147C9.3325 14.5997 9.73938 13.6769 10.4088 12.9592C10.3038 12.7029 9.93625 11.6519 10.5138 10.2422C10.5138 10.2422 11.3931 9.97301 13.4012 11.2931C14.2413 11.0624 15.1338 10.947 16.0263 10.947C16.9188 10.947 17.8113 11.0624 18.6513 11.2931C20.6594 9.9602 21.5387 10.2422 21.5387 10.2422C22.1163 11.6519 21.7488 12.7029 21.6438 12.9592C22.3131 13.6769 22.72 14.5868 22.72 15.7147C22.72 19.6492 20.2656 20.5207 17.9294 20.777C18.31 21.0975 18.6381 21.7126 18.6381 22.6738C18.6381 24.0452 18.625 25.1474 18.625 25.4934C18.625 25.7625 18.8219 26.0829 19.3469 25.9804C21.4314 25.2935 23.2428 23.9854 24.526 22.2403C25.8092 20.4953 26.4996 18.4012 26.5 16.2529C26.5 10.5882 21.8013 6 16 6Z" fill="#ABB2BF"/>
</g>
</svg>
