<svg width="104" height="40" viewBox="0 0 104 40" fill="none" xmlns="http://www.w3.org/2000/svg">
<g id="wagon-red 1" clip-path="url(#clip0_1_133)">
<path id="Vector" d="M94.5997 14.1268L79.7771 13.5451C79.0501 13.5451 78.1788 13.2546 77.598 12.9642L66.4084 5.40854C61.6127 2.21114 56.0901 0.466797 50.4223 0.466797H14.6745C12.0588 0.466797 9.58839 1.62854 7.99013 3.80854L1.88665 11.8016C1.1597 12.6729 0.869263 13.8364 0.869263 14.9981V22.5546C0.869263 28.659 5.81013 33.7442 12.0588 33.7442H13.2214C14.8197 37.0859 18.1623 39.5572 22.0858 39.5572C26.0084 39.5572 29.4971 37.232 30.9501 33.7442H73.3823C74.9806 37.0859 78.3232 39.5572 82.2467 39.5572C86.171 39.5572 89.658 37.232 91.111 33.7442H91.4014C97.5049 33.7442 102.591 28.8033 102.591 22.5546C102.881 17.9051 99.2493 14.2711 94.5997 14.1268ZM12.9301 32.5816H12.204C8.2797 32.5816 4.79274 30.2564 3.19361 26.9146H13.0753C12.7849 27.7868 12.6388 28.8042 12.6388 29.8216C12.4936 30.6929 12.6388 31.7103 12.9301 32.5816ZM30.3684 32.5816C30.224 33.0181 30.078 33.3085 29.9327 33.7442C29.1944 35.1476 28.0867 36.3226 26.7291 37.1422C25.3716 37.9618 23.8159 38.3949 22.2301 38.3946C18.8875 38.3946 15.9823 36.5051 14.6736 33.7442C14.5284 33.4538 14.3832 33.0172 14.238 32.5816C13.9475 31.7103 13.6571 30.6929 13.6571 29.6755C13.6571 28.6581 13.8023 27.6407 14.238 26.7694C14.3823 26.3329 14.5284 26.0424 14.6745 25.6068C16.1267 22.8459 19.0336 20.9572 22.231 20.9572C25.5727 20.9572 28.3336 22.8459 29.7875 25.6068C29.9327 25.8972 30.0771 26.3338 30.2223 26.7694C30.5136 27.6407 30.8049 28.6581 30.8049 29.6755C30.8049 30.6929 30.6597 31.7103 30.3684 32.5816ZM73.238 32.5816H31.531C31.8214 31.7103 31.9675 30.6929 31.9675 29.6755C31.9675 28.6581 31.8214 27.6407 31.531 26.7694H73.2371C72.9467 27.6407 72.8023 28.6581 72.8023 29.6755C72.8023 30.6929 72.9475 31.7103 73.238 32.5816ZM90.6762 32.5816C90.531 33.0181 90.3849 33.3085 90.2406 33.7442C88.7867 36.5051 85.8806 38.3946 82.684 38.3946C81.0983 38.3948 79.5426 37.9617 78.1851 37.1421C76.8276 36.3225 75.7198 35.1475 74.9814 33.7442C74.8362 33.4538 74.691 33.0172 74.5458 32.5816C74.2553 31.7103 73.964 30.6929 73.964 29.6755C73.964 28.6581 74.1101 27.6407 74.5458 26.7694C74.691 26.3329 74.8362 26.0424 74.9814 25.6068C76.4345 22.8459 79.3414 20.9572 82.538 20.9572C85.8806 20.9572 88.6414 22.8459 90.0945 25.6068C90.2406 25.8972 90.3849 26.3338 90.531 26.7694C90.8214 27.6407 91.1119 28.6581 91.1119 29.6755C91.1119 30.6929 90.9667 31.7103 90.6762 32.5816ZM91.8388 32.5816C92.1293 31.7103 92.2745 30.6929 92.2745 29.6755C92.2745 28.6581 92.1293 27.6407 91.8388 26.7694H100.703C99.8977 28.4557 98.6456 29.889 97.0829 30.9137C95.5201 31.9384 93.7064 32.5152 91.8388 32.5816ZM91.4023 25.752C89.804 22.4094 86.4623 19.939 82.538 19.939C78.6145 19.939 75.1267 22.2642 73.6736 25.752H31.0953C29.4971 22.4094 26.1553 19.939 22.231 19.939C18.3075 19.939 14.8197 22.2642 13.3667 25.752H2.61361C2.31601 24.8623 2.16849 23.9293 2.17709 22.9911H5.08405C5.23476 22.9806 5.37658 22.9159 5.48334 22.809C5.59009 22.7021 5.65458 22.5601 5.66492 22.4094C5.65438 22.2588 5.5898 22.1171 5.48306 22.0104C5.37633 21.9037 5.23462 21.8391 5.08405 21.8285H2.17709V18.1955H5.08405C5.23476 18.1849 5.37658 18.1202 5.48334 18.0133C5.59009 17.9064 5.65458 17.7645 5.66492 17.6138C5.65438 17.4632 5.5898 17.3215 5.48306 17.2147C5.37633 17.108 5.23462 17.0434 5.08405 17.0329H2.17709V14.9981C2.17833 14.0996 2.48599 13.2285 3.04926 12.5285L9.15274 4.53549C10.4606 2.79114 12.6397 1.62854 14.8197 1.62854H50.5684C56.0901 1.62854 61.3214 3.22767 65.9727 6.27897L77.1623 13.8355C78.0336 14.2711 78.9058 14.5624 79.9232 14.7068L94.7458 15.2877C97.3614 15.4329 99.5414 16.7407 100.704 18.7755H95.0362C94.8856 18.7864 94.744 18.8512 94.6373 18.9581C94.5306 19.0649 94.466 19.2066 94.4554 19.3572C94.4664 19.5076 94.5312 19.649 94.6378 19.7557C94.7444 19.8623 94.8858 19.927 95.0362 19.9381H101.285C101.575 20.8094 101.866 21.6824 101.866 22.699C101.866 23.8607 101.721 24.8781 101.285 25.8955H91.4032V25.7503L91.4023 25.752Z" fill="#0F0F0F" stroke="#0F0F0F" stroke-width="0.3"/>
<path id="Vector_2" d="M49.1162 3.95381L15.1119 3.80859C13.0771 3.80859 11.3336 4.82598 10.171 6.42425L7.11885 10.9295C6.82928 11.5103 6.68319 12.0921 6.97363 12.6729C7.26406 13.2538 7.8458 13.5451 8.4258 13.5451L22.6675 13.8356H22.958L71.2041 14.9973C71.4945 14.9973 71.7849 14.8521 71.7849 14.5616V14.1251L68.1519 11.0729C63.211 6.56859 56.2362 3.95294 49.1154 3.95294L49.1162 3.95381ZM22.6684 12.8173L8.71798 12.5269C8.42754 12.5269 8.28145 12.2356 8.28145 12.2356C8.28145 12.0903 8.13711 11.9451 8.28145 11.6547L11.3336 7.15033C12.2049 5.84164 13.6588 5.11555 15.2571 5.11555H25.7197L22.6684 12.8173ZM23.831 12.9625L26.8823 5.11555L42.2858 5.26077L43.7388 13.5442L23.831 12.9625ZM44.7562 13.399L43.3049 5.11642H48.9719C55.8015 5.11642 62.4858 7.58685 67.718 11.9469L70.0432 13.9816L44.758 13.4008V13.3999L44.7562 13.399ZM86.4641 25.7521C85.4467 24.7347 84.138 24.1529 82.5397 24.1529C81.0875 24.1529 79.6336 24.7347 78.6162 25.7521C78.3249 26.0425 78.0345 26.479 77.7441 26.9138C77.1705 27.7746 76.8644 28.7859 76.8644 29.8203C76.8644 30.8547 77.1705 31.866 77.7441 32.7269C78.0345 33.1634 78.3249 33.4538 78.6162 33.8895C79.6336 34.9069 81.0867 35.4877 82.5397 35.4877C84.138 35.4877 85.4467 34.9069 86.4641 33.8895C86.7545 33.599 87.0449 33.1625 87.3354 32.7269C87.7719 31.8556 88.2067 30.9834 88.2067 29.8208C88.2092 28.7871 87.9061 27.7757 87.3354 26.9138C87.0449 26.4782 86.7545 26.0425 86.4641 25.7521ZM86.0275 32.5825C85.591 33.0182 85.1554 33.4538 84.5754 33.7442C83.9928 34.0347 83.2667 34.326 82.5406 34.326C81.8128 34.326 81.0867 34.1799 80.5058 33.7442C79.9232 33.4538 79.4884 33.0173 79.0519 32.5825C78.3947 31.7559 78.0362 30.7315 78.0345 29.6755C78.0345 28.5129 78.471 27.6408 79.0519 26.7695C79.4884 26.3329 79.9241 25.8973 80.5049 25.6069C81.0858 25.3164 81.8128 25.1703 82.5397 25.1703C83.2667 25.1703 83.8475 25.3156 84.5745 25.6069C85.1554 25.8973 85.5919 26.3338 86.0267 26.7695C86.7545 27.4956 87.0449 28.5138 87.0449 29.6755C87.0432 30.7315 86.6847 31.7559 86.0275 32.5825ZM55.6562 17.4695H52.7484C52.5978 17.48 52.4561 17.5446 52.3494 17.6513C52.2427 17.758 52.1781 17.8998 52.1675 18.0503C52.1779 18.2011 52.2424 18.343 52.3491 18.4499C52.4559 18.5568 52.5977 18.6215 52.7484 18.6321H55.6554C55.8061 18.6215 55.9479 18.5568 56.0547 18.4499C56.1614 18.343 56.2259 18.2011 56.2362 18.0503C56.2257 17.8998 56.1611 17.758 56.0544 17.6513C55.9477 17.5446 55.8068 17.48 55.6562 17.4695ZM33.8588 17.4695H30.9528C30.802 17.4798 30.6601 17.5443 30.5532 17.651C30.4463 17.7578 30.3816 17.8996 30.371 18.0503C30.3814 18.2012 30.446 18.3432 30.5529 18.4502C30.6599 18.5571 30.8019 18.6217 30.9528 18.6321H33.8588C34.0096 18.6215 34.1514 18.5568 34.2581 18.4499C34.3649 18.343 34.4294 18.2011 34.4397 18.0503C34.4292 17.8998 34.3646 17.758 34.2579 17.6513C34.1511 17.5446 34.0094 17.48 33.8588 17.4695ZM26.1571 25.7521C25.1397 24.7347 23.8328 24.1529 22.2336 24.1529C20.7815 24.1529 19.3275 24.7347 18.3102 25.7521C18.0188 26.0425 17.7284 26.479 17.438 26.9138C16.8672 27.7756 16.564 28.7871 16.5667 29.8208C16.5667 30.8382 16.8571 31.8556 17.438 32.7269C17.7284 33.1634 18.0188 33.4538 18.3102 33.8895C19.3275 34.9069 20.7797 35.4877 22.2336 35.4877C23.8319 35.4877 25.1406 34.9069 26.158 33.8895C26.4484 33.599 26.7388 33.1625 27.0293 32.7269C27.4658 31.8556 27.9015 30.9834 27.9015 29.8208C27.9015 28.8034 27.6102 27.786 27.0293 26.9138C26.7388 26.4782 26.4475 26.0425 26.1571 25.7521ZM25.5762 32.5825C25.1406 33.0182 24.7049 33.4538 24.1241 33.7442C23.5423 34.0347 22.8154 34.326 22.0893 34.326C21.3641 34.326 20.6371 34.1799 20.0545 33.7442C19.4736 33.4538 19.0371 33.0173 18.6023 32.5825C17.9449 31.7561 17.5864 30.7316 17.5849 29.6755C17.5849 28.5129 18.0206 27.6408 18.6023 26.7695C19.038 26.3329 19.4736 25.8973 20.0545 25.6069C20.6362 25.3164 21.3632 25.1703 22.0893 25.1703C22.8162 25.1703 23.398 25.3156 24.1241 25.6069C24.7049 25.8973 25.1415 26.3338 25.5762 26.7695C26.3032 27.4956 26.5936 28.5138 26.5936 29.6755C26.7388 30.8382 26.3032 31.8556 25.5762 32.5825Z" fill="#0F0F0F" stroke="#0F0F0F" stroke-width="0.3"/>
</g>
<defs>
<clipPath id="clip0_1_133">
<rect width="103.478" height="40" fill="white"/>
</clipPath>
</defs>
</svg>
