<svg width="34" height="34" viewBox="0 0 34 34" fill="none" xmlns="http://www.w3.org/2000/svg">
<g id="Iconsax/Linear/usersquare">
<path id="Vector" d="M25.6983 30.6285C24.4517 30.9969 22.9783 31.1669 21.25 31.1669H12.75C11.0217 31.1669 9.54833 30.9969 8.30167 30.6285C8.61333 26.9452 12.3958 24.041 17 24.041C21.6042 24.041 25.3867 26.9452 25.6983 30.6285Z" stroke="#171F4E" stroke-linecap="round" stroke-linejoin="round"/>
<path id="Vector_2" d="M21.25 2.8335H12.75C5.66668 2.8335 2.83334 5.66683 2.83334 12.7502V21.2502C2.83334 26.6052 4.44834 29.5377 8.30168 30.6285C8.61334 26.9452 12.3958 24.041 17 24.041C21.6042 24.041 25.3867 26.9452 25.6983 30.6285C29.5517 29.5377 31.1667 26.6052 31.1667 21.2502V12.7502C31.1667 5.66683 28.3333 2.8335 21.25 2.8335ZM17 20.0743C14.195 20.0743 11.9283 17.7935 11.9283 14.9885C11.9283 12.1835 14.195 9.91683 17 9.91683C19.805 9.91683 22.0717 12.1835 22.0717 14.9885C22.0717 17.7935 19.805 20.0743 17 20.0743Z" stroke="#171F4E" stroke-linecap="round" stroke-linejoin="round"/>
</g>
</svg>
